<svg width="997" height="156" viewBox="0 0 997 156" fill="none" xmlns="http://www.w3.org/2000/svg">
<path d="M10.784 144.512L10.4385 144.874L10.4428 144.878L10.784 144.512ZM17.102 84.608L17.3833 85.0214L17.3872 85.0187L17.102 84.608ZM82.622 72.908V73.408H83.122V72.908H82.622ZM80.282 58.4L80.7372 58.1931L80.7372 58.1931L80.282 58.4ZM72.092 51.146L71.9164 51.6142L71.9226 51.6164L72.092 51.146ZM32.078 51.38L31.9853 50.8887L31.9836 50.889L32.078 51.38ZM8.912 58.4L8.41895 58.4831L8.52433 59.1084L9.10778 58.8601L8.912 58.4ZM5.402 37.574L5.22439 37.1066L4.84075 37.2524L4.90895 37.6571L5.402 37.574ZM31.142 30.554L31.0533 30.0619L31.0518 30.0622L31.142 30.554ZM88.238 32.426L88.0398 32.885L88.0435 32.8866L88.238 32.426ZM103.214 47.402L102.753 47.5965L102.757 47.6051L103.214 47.402ZM107.894 152V152.5H108.394V152H107.894ZM83.792 152L83.2921 152.008L83.3003 152.5H83.792V152ZM83.558 137.96L84.0579 137.952L84.0497 137.46H83.558V137.96ZM83.09 137.96V137.46H82.8624L82.713 137.632L83.09 137.96ZM64.37 149.894L64.5416 150.364L64.5465 150.362L64.37 149.894ZM65.54 130.238L65.3382 129.781L65.3331 129.783L65.54 130.238ZM77.942 120.878L77.5514 120.566L77.5439 120.575L77.942 120.878ZM82.622 92.096H83.122V91.596H82.622V92.096ZM36.29 97.712L36.0587 97.2687L36.0587 97.2687L36.29 97.712ZM31.376 128.834L31.0457 129.209L31.0536 129.216L31.0618 129.223L31.376 128.834ZM39.566 153.84C27.4894 153.84 18.0297 150.591 11.1252 144.146L10.4428 144.878C17.5783 151.537 27.3066 154.84 39.566 154.84V153.84ZM11.1294 144.151C4.22527 137.553 0.754 128.645 0.754 117.368H-0.246C-0.246 128.867 3.30274 138.055 10.4386 144.873L11.1294 144.151ZM0.754 117.368C0.754 103.329 6.29528 92.5674 17.3833 85.0214L16.8207 84.1946C5.44472 91.9366 -0.246 103.015 -0.246 117.368H0.754ZM17.3872 85.0187C28.5024 77.2998 44.3765 73.408 65.072 73.408V72.408C44.2715 72.408 28.1656 76.3162 16.8168 84.1973L17.3872 85.0187ZM65.072 73.408H82.622V72.408H65.072V73.408ZM83.122 72.908C83.122 66.6375 82.3399 61.7191 80.7372 58.1931L79.8268 58.6069C81.3441 61.9449 82.122 66.6985 82.122 72.908H83.122ZM80.7372 58.1931C79.1155 54.6254 76.2744 52.1202 72.2614 50.6756L71.9226 51.6164C75.7097 52.9798 78.3285 55.3106 79.8268 58.6069L80.7372 58.1931ZM72.2676 50.6778C68.442 49.2433 63.147 48.54 56.414 48.54V49.54C63.097 49.54 68.254 50.2407 71.9164 51.6142L72.2676 50.6778ZM56.414 48.54C48.4252 48.54 40.2821 49.3232 31.9853 50.8887L32.1707 51.8713C40.4099 50.3168 48.4908 49.54 56.414 49.54V48.54ZM31.9836 50.889C23.8381 52.4554 16.082 54.8056 8.71622 57.9399L9.10778 58.8601C16.406 55.7544 24.0939 53.4246 32.1724 51.871L31.9836 50.889ZM9.40505 58.3169L5.89505 37.4909L4.90895 37.6571L8.41895 58.4831L9.40505 58.3169ZM5.57961 38.0414C13.3476 35.0895 21.8979 32.7571 31.2322 31.0458L31.0518 30.0622C21.6661 31.7829 13.0564 34.1305 5.22439 37.1066L5.57961 38.0414ZM31.2307 31.0461C40.7179 29.3352 50.2042 28.48 59.69 28.48V27.48C50.1438 27.48 40.5981 28.3407 31.0533 30.0619L31.2307 31.0461ZM59.69 28.48C71.8274 28.48 81.2655 29.9598 88.0398 32.885L88.4362 31.967C81.4825 28.9642 71.8886 27.48 59.69 27.48V28.48ZM88.0435 32.8866C94.9435 35.8 99.84 40.6965 102.753 47.5965L103.675 47.2075C100.66 40.0675 95.5725 34.98 88.4325 31.9654L88.0435 32.8866ZM102.757 47.6051C105.838 54.5373 107.394 63.742 107.394 75.248H108.394C108.394 63.666 106.83 54.3067 103.671 47.1989L102.757 47.6051ZM107.394 75.248V152H108.394V75.248H107.394ZM107.894 151.5H83.792V152.5H107.894V151.5ZM84.2919 151.992L84.0579 137.952L83.0581 137.968L83.2921 152.008L84.2919 151.992ZM83.558 137.46H83.09V138.46H83.558V137.46ZM82.713 137.632C78.5719 142.386 72.4119 146.325 64.1935 149.426L64.5465 150.362C72.8641 147.223 79.1841 143.206 83.467 138.288L82.713 137.632ZM64.1984 149.424C56.14 152.369 47.93 153.84 39.566 153.84V154.84C48.05 154.84 56.376 153.347 64.5416 150.364L64.1984 149.424ZM48.458 134.248C54.7619 134.248 60.5275 133.066 65.7469 130.693L65.3331 129.783C60.2565 132.09 54.6341 133.248 48.458 133.248V134.248ZM65.7418 130.695C71.1091 128.328 75.3162 125.159 78.3401 121.181L77.5439 120.575C74.6398 124.397 70.5789 127.468 65.3382 129.781L65.7418 130.695ZM78.3324 121.19C81.5208 117.205 83.122 112.727 83.122 107.774H82.122C82.122 112.493 80.6032 116.751 77.5516 120.566L78.3324 121.19ZM83.122 107.774V92.096H82.122V107.774H83.122ZM82.622 91.596H68.582V92.596H82.622V91.596ZM68.582 91.596C54.2028 91.596 43.3418 93.4688 36.0587 97.2687L36.5213 98.1553C43.5902 94.4672 54.2572 92.596 68.582 92.596V91.596ZM36.0587 97.2687C32.4082 99.1733 29.6439 101.588 27.794 104.524C25.9431 107.461 25.026 110.891 25.026 114.794H26.026C26.026 111.053 26.9029 107.814 28.64 105.057C30.3781 102.299 32.9958 99.9947 36.5213 98.1553L36.0587 97.2687ZM25.026 114.794C25.026 120.843 27.022 125.669 31.0457 129.209L31.7063 128.459C27.93 125.135 26.026 120.601 26.026 114.794H25.026ZM31.0618 129.223C35.2368 132.595 41.0573 134.248 48.458 134.248V133.248C41.1947 133.248 35.6272 131.625 31.6902 128.445L31.0618 129.223ZM174.768 150.164L174.573 150.625L174.573 150.625L174.768 150.164ZM159.672 139.352L160.052 139.028L159.903 138.852H159.672V139.352ZM159.264 139.352V138.852H158.772L158.764 139.344L159.264 139.352ZM159.06 152V152.5H159.552L159.56 152.008L159.06 152ZM138.048 152H137.548V152.5H138.048V152ZM138.048 3.08V2.58H137.548V3.08H138.048ZM160.08 3.08H160.58V2.58H160.08V3.08ZM160.08 58.568H159.58V59.068H160.08V58.568ZM160.488 58.568V59.068H160.728L160.878 58.8803L160.488 58.568ZM175.176 47.756L175.365 48.2189L175.374 48.215L175.176 47.756ZM228.012 58.568L227.625 58.8849L227.627 58.8876L228.012 58.568ZM228.012 139.556L228.396 139.876L228.399 139.873L228.012 139.556ZM210.876 126.092L210.483 125.783L210.479 125.788L210.876 126.092ZM210.876 71.828L210.479 72.1321L210.483 72.1373L210.876 71.828ZM174.564 65.708L174.793 66.1525L174.793 66.1525L174.564 65.708ZM163.956 75.296L164.374 75.57L164.378 75.5635L163.956 75.296ZM163.956 122.624L164.378 122.356L164.378 122.356L163.956 122.624ZM174.564 132.212L174.793 131.768L174.564 132.212ZM194.76 153.54C187.613 153.54 181.016 152.259 174.962 149.703L174.573 150.625C180.76 153.237 187.491 154.54 194.76 154.54V153.54ZM174.962 149.703C168.907 147.147 163.941 143.587 160.052 139.028L159.291 139.676C163.291 144.365 168.388 148.013 174.573 150.625L174.962 149.703ZM159.672 138.852H159.264V139.852H159.672V138.852ZM158.764 139.344L158.56 151.992L159.56 152.008L159.764 139.36L158.764 139.344ZM159.06 151.5H138.048V152.5H159.06V151.5ZM138.548 152V3.08H137.548V152H138.548ZM138.048 3.58H160.08V2.58H138.048V3.58ZM159.58 3.08V58.568H160.58V3.08H159.58ZM160.08 59.068H160.488V58.068H160.08V59.068ZM160.878 58.8803C164.63 54.1908 169.455 50.6366 175.365 48.2188L174.987 47.2932C168.929 49.7714 163.962 53.4252 160.097 58.2556L160.878 58.8803ZM175.374 48.215C181.29 45.6603 187.75 44.38 194.76 44.38V43.38C187.626 43.38 181.029 44.6837 174.978 47.297L175.374 48.215ZM194.76 44.38C208.774 44.38 219.708 49.2233 227.625 58.8849L228.399 58.2511C220.268 48.3287 209.034 43.38 194.76 43.38V44.38ZM227.627 58.8876C235.553 68.4251 239.548 81.7611 239.548 98.96H240.548C240.548 81.6149 236.519 68.0229 228.396 58.2484L227.627 58.8876ZM239.548 98.96C239.548 116.158 235.553 129.564 227.625 139.239L228.399 139.873C236.519 129.964 240.548 116.306 240.548 98.96H239.548ZM227.627 139.236C219.711 148.763 208.776 153.54 194.76 153.54V154.54C209.031 154.54 220.265 149.661 228.396 139.876L227.627 139.236ZM189.66 136.18C199.037 136.18 206.267 132.931 211.273 126.396L210.479 125.788C205.692 132.037 198.778 135.18 189.66 135.18V136.18ZM211.269 126.401C216.395 119.89 218.924 110.72 218.924 98.96H217.924C217.924 110.592 215.421 119.51 210.483 125.783L211.269 126.401ZM218.924 98.96C218.924 87.1995 216.395 78.0302 211.269 71.5187L210.483 72.1373C215.421 78.4098 217.924 87.3285 217.924 98.96H218.924ZM211.273 71.524C206.267 64.989 199.037 61.74 189.66 61.74V62.74C198.778 62.74 205.692 65.883 210.479 72.132L211.273 71.524ZM189.66 61.74C184.013 61.74 178.901 62.9113 174.335 65.2635L174.793 66.1525C179.203 63.8807 184.155 62.74 189.66 62.74V61.74ZM174.335 65.2635C169.772 67.6143 166.167 70.8699 163.533 75.0285L164.378 75.5635C166.912 71.5621 170.38 68.4257 174.793 66.1525L174.335 65.2635ZM163.538 75.022C160.895 79.0552 159.58 83.7084 159.58 88.964H160.58C160.58 83.8836 161.849 79.4248 164.374 75.57L163.538 75.022ZM159.58 88.964V108.956H160.58V88.964H159.58ZM159.58 108.956C159.58 114.079 160.897 118.728 163.533 122.892L164.378 122.356C161.847 118.36 160.58 113.897 160.58 108.956H159.58ZM163.533 122.892C166.167 127.05 169.772 130.306 174.335 132.656L174.793 131.768C170.38 129.494 166.912 126.358 164.378 122.356L163.533 122.892ZM174.335 132.656C178.901 135.009 184.013 136.18 189.66 136.18V135.18C184.155 135.18 179.203 134.039 174.793 131.768L174.335 132.656ZM283.72 138.86L283.359 139.206L283.361 139.208L283.72 138.86ZM283.72 51.479L284.079 51.8274L284.081 51.8248L283.72 51.479ZM367.816 51.479L367.455 51.8248L367.457 51.8274L367.816 51.479ZM367.816 138.86L368.175 139.208L368.177 139.206L367.816 138.86ZM350.515 124.406L350.896 124.729L350.896 124.729L350.515 124.406ZM301.021 65.714L300.644 65.3859L300.639 65.3907L301.021 65.714ZM301.021 124.406L300.639 124.729L300.644 124.734L301.021 124.406ZM325.768 153.69C307.76 153.69 293.888 148.61 284.079 138.512L283.361 139.208C293.407 149.55 307.567 154.69 325.768 154.69V153.69ZM284.081 138.514C274.267 128.267 269.328 113.807 269.328 95.06H268.328C268.328 113.981 273.317 128.721 283.359 139.206L284.081 138.514ZM269.328 95.06C269.328 76.3129 274.267 61.9271 284.079 51.8274L283.361 51.1306C273.316 61.4709 268.328 76.1391 268.328 95.06H269.328ZM284.081 51.8248C293.891 41.5816 307.762 36.43 325.768 36.43V35.43C307.565 35.43 293.404 40.6444 283.359 51.1332L284.081 51.8248ZM325.768 36.43C343.773 36.43 357.644 41.5816 367.455 51.8248L368.177 51.1332C358.131 40.6444 343.97 35.43 325.768 35.43V36.43ZM367.457 51.8274C377.268 61.9271 382.208 76.3129 382.208 95.06H383.208C383.208 76.1391 378.219 61.4709 368.175 51.1306L367.457 51.8274ZM382.208 95.06C382.208 113.807 377.269 128.267 367.455 138.514L368.177 139.206C378.219 128.721 383.208 113.981 383.208 95.06H382.208ZM367.457 138.512C357.647 148.61 343.775 153.69 325.768 153.69V154.69C343.968 154.69 358.128 149.55 368.175 139.208L367.457 138.512ZM325.768 134.98C336.682 134.98 345.086 131.582 350.896 124.729L350.133 124.083C344.556 130.662 336.461 133.98 325.768 133.98V134.98ZM350.896 124.729C356.695 117.889 359.556 107.973 359.556 95.06H358.556C358.556 107.843 355.722 117.491 350.133 124.083L350.896 124.729ZM359.556 95.06C359.556 82.1466 356.695 72.2305 350.896 65.3907L350.133 66.0373C355.722 72.6294 358.556 82.2774 358.556 95.06H359.556ZM350.896 65.3907C345.086 58.5375 336.682 55.14 325.768 55.14V56.14C336.461 56.14 344.556 59.4585 350.133 66.0373L350.896 65.3907ZM325.768 55.14C314.996 55.14 306.597 58.5391 300.644 65.3859L301.398 66.0421C307.124 59.4569 315.223 56.14 325.768 56.14V55.14ZM300.639 65.3907C294.84 72.2305 291.98 82.1466 291.98 95.06H292.98C292.98 82.2774 295.813 72.6294 301.402 66.0373L300.639 65.3907ZM291.98 95.06C291.98 107.973 294.84 117.889 300.639 124.729L301.402 124.083C295.813 117.491 292.98 107.843 292.98 95.06H291.98ZM300.644 124.734C306.597 131.581 314.996 134.98 325.768 134.98V133.98C315.223 133.98 307.124 130.663 301.398 124.078L300.644 124.734ZM427.528 143.021L427.149 143.348L427.528 143.021ZM417.892 38.12V37.62H417.392V38.12H417.892ZM441.544 38.12H442.044V37.62H441.544V38.12ZM446.8 127.034L446.391 127.322L446.397 127.33L446.8 127.034ZM480.088 130.757L479.853 130.315L479.847 130.319L480.088 130.757ZM491.038 120.683L491.462 120.947L491.466 120.94L491.038 120.683ZM494.98 38.12V37.62H494.48V38.12H494.98ZM518.632 38.12H519.132V37.62H518.632V38.12ZM518.632 152V152.5H519.132V152H518.632ZM496.075 152L495.575 152.008L495.583 152.5H496.075V152ZM495.856 138.422L496.356 138.414L496.348 137.922H495.856V138.422ZM495.418 138.422V137.922H495.188L495.039 138.096L495.418 138.422ZM479.431 150.248L479.234 149.788L479.234 149.788L479.431 150.248ZM457.75 153.69C444.111 153.69 434.202 149.992 427.906 142.694L427.149 143.348C433.701 150.942 443.94 154.69 457.75 154.69V153.69ZM427.906 142.694C421.596 135.38 418.392 123.916 418.392 108.2H417.392C417.392 124.02 420.611 135.77 427.149 143.348L427.906 142.694ZM418.392 108.2V38.12H417.392V108.2H418.392ZM417.892 38.62H441.544V37.62H417.892V38.62ZM441.044 38.12V103.82H442.044V38.12H441.044ZM441.044 103.82C441.044 114.368 442.798 122.232 446.391 127.322L447.208 126.746C443.793 121.908 442.044 114.296 442.044 103.82H441.044ZM446.397 127.33C450.168 132.46 456.183 134.98 464.32 134.98V133.98C456.396 133.98 450.731 131.536 447.202 126.738L446.397 127.33ZM464.32 134.98C470.376 134.98 475.717 133.724 480.328 131.195L479.847 130.319C475.406 132.754 470.235 133.98 464.32 133.98V134.98ZM480.322 131.199C485.067 128.678 488.785 125.26 491.462 120.947L490.613 120.419C488.034 124.574 484.452 127.872 479.853 130.315L480.322 131.199ZM491.466 120.94C494.144 116.478 495.48 111.497 495.48 106.01H494.48C494.48 111.327 493.188 116.128 490.609 120.426L491.466 120.94ZM495.48 106.01V38.12H494.48V106.01H495.48ZM494.98 38.62H518.632V37.62H494.98V38.62ZM518.132 38.12V152H519.132V38.12H518.132ZM518.632 151.5H496.075V152.5H518.632V151.5ZM496.575 151.992L496.356 138.414L495.356 138.43L495.575 152.008L496.575 151.992ZM495.856 137.922H495.418V138.922H495.856V137.922ZM495.039 138.096C490.56 143.296 485.293 147.192 479.234 149.788L479.628 150.708C485.832 148.048 491.223 144.06 495.796 138.748L495.039 138.096ZM479.234 149.788C473.177 152.384 466.02 153.69 457.75 153.69V154.69C466.123 154.69 473.42 153.368 479.628 150.708L479.234 149.788ZM589.507 146.087L589.158 146.445L589.168 146.454L589.507 146.087ZM580.966 57.83H581.466V57.33H580.966V57.83ZM554.686 57.83H554.186V58.33H554.686V57.83ZM554.686 38.12V37.62H554.186V38.12H554.686ZM580.966 38.12V38.62H581.466V38.12H580.966ZM580.966 0.889987V0.389987H580.466V0.889987H580.966ZM604.837 0.889987H605.337V0.389987H604.837V0.889987ZM604.837 38.12H604.337V38.62H604.837V38.12ZM644.476 38.12H644.976V37.62H644.476V38.12ZM644.476 57.83V58.33H644.976V57.83H644.476ZM604.837 57.83V57.33H604.337V57.83H604.837ZM608.779 128.786L609.159 128.461L609.159 128.461L608.779 128.786ZM632.869 132.509L632.787 132.016L632.784 132.016L632.869 132.509ZM642.286 130.1L642.783 130.046L642.714 129.41L642.113 129.631L642.286 130.1ZM644.476 150.248L644.625 150.725L645.018 150.603L644.973 150.194L644.476 150.248ZM630.898 153.314L630.832 152.818L630.83 152.819L630.898 153.314ZM617.977 153.69C604.886 153.69 595.55 150.996 589.847 145.72L589.168 146.454C595.144 151.982 604.788 154.69 617.977 154.69V153.69ZM589.856 145.729C584.301 140.316 581.466 131.499 581.466 119.15H580.466C580.466 131.621 583.325 140.762 589.158 146.445L589.856 145.729ZM581.466 119.15V57.83H580.466V119.15H581.466ZM580.966 57.33H554.686V58.33H580.966V57.33ZM555.186 57.83V38.12H554.186V57.83H555.186ZM554.686 38.62H580.966V37.62H554.686V38.62ZM581.466 38.12V0.889987H580.466V38.12H581.466ZM580.966 1.38999H604.837V0.389987H580.966V1.38999ZM604.337 0.889987V38.12H605.337V0.889987H604.337ZM604.837 38.62H644.476V37.62H604.837V38.62ZM643.976 38.12V57.83H644.976V38.12H643.976ZM644.476 57.33H604.837V58.33H644.476V57.33ZM604.337 57.83V112.58H605.337V57.83H604.337ZM604.337 112.58C604.337 120.342 605.649 125.902 608.4 129.111L609.159 128.461C606.654 125.538 605.337 120.294 605.337 112.58H604.337ZM608.4 129.111C611.17 132.344 616.027 133.885 622.795 133.885V132.885C616.131 132.885 611.644 131.36 609.159 128.461L608.4 129.111ZM622.795 133.885C626.182 133.885 629.569 133.59 632.955 133.002L632.784 132.016C629.453 132.596 626.124 132.885 622.795 132.885V133.885ZM632.951 133.002C636.48 132.414 639.65 131.604 642.459 130.569L642.113 129.631C639.374 130.64 636.266 131.436 632.787 132.016L632.951 133.002ZM641.789 130.154L643.979 150.302L644.973 150.194L642.783 130.046L641.789 130.154ZM644.327 149.771C639.679 151.223 635.181 152.239 630.832 152.818L630.964 153.81C635.375 153.221 639.929 152.193 644.625 150.725L644.327 149.771ZM630.83 152.819C626.619 153.399 622.335 153.69 617.977 153.69V154.69C622.379 154.69 626.709 154.397 630.967 153.809L630.83 152.819ZM698.751 152H698.251V152.5H698.751V152ZM698.751 122.23V121.73H698.251V122.23H698.751ZM728.521 122.23H729.021V121.73H728.521V122.23ZM728.521 152V152.5H729.021V152H728.521ZM699.251 152V122.23H698.251V152H699.251ZM698.751 122.73H728.521V121.73H698.751V122.73ZM728.021 122.23V152H729.021V122.23H728.021ZM728.521 151.5H698.751V152.5H728.521V151.5ZM776.898 146.307L776.589 146.701L776.591 146.702L776.898 146.307ZM761.58 122.916L761.464 122.43L760.954 122.551L761.099 123.055L761.58 122.916ZM783.004 117.845L783.493 117.743L783.388 117.24L782.889 117.358L783.004 117.845ZM790.353 129.747L790.03 130.13L790.038 130.136L790.353 129.747ZM813.847 132.128L813.634 131.676L813.634 131.676L813.847 132.128ZM821.713 124.055L821.261 123.841L821.259 123.845L821.713 124.055ZM823.783 115.568L824.282 115.601L824.282 115.6L823.783 115.568ZM824.094 2.95999V2.45999H823.594V2.95999H824.094ZM846.036 2.95999H846.536V2.45999H846.036V2.95999ZM845.932 116.085L845.432 116.075V116.085H845.932ZM844.897 125.814L844.409 125.704L844.407 125.714L844.897 125.814ZM841.171 135.233L841.604 135.482L841.605 135.482L841.171 135.233ZM825.646 150.24L825.424 149.792L825.646 150.24ZM804.429 154.502C793.62 154.502 784.556 151.63 777.204 145.913L776.591 146.702C784.144 152.577 793.433 155.502 804.429 155.502V154.502ZM777.206 145.914C769.913 140.189 764.862 132.484 762.06 122.778L761.099 123.055C763.955 132.945 769.116 140.834 776.589 146.701L777.206 145.914ZM761.695 123.403L783.119 118.332L782.889 117.358L761.464 122.43L761.695 123.403ZM782.515 117.947C783.506 122.69 786.02 126.753 790.03 130.13L790.675 129.365C786.819 126.118 784.435 122.246 783.493 117.743L782.515 117.947ZM790.038 130.136C794.124 133.447 798.684 135.112 803.704 135.112V134.112C798.926 134.112 794.585 132.534 790.667 129.359L790.038 130.136ZM803.704 135.112C807.034 135.112 810.487 134.262 814.06 132.58L813.634 131.676C810.169 133.306 806.86 134.112 803.704 134.112V135.112ZM814.06 132.58C817.691 130.871 820.395 128.091 822.167 124.265L821.259 123.845C819.581 127.471 817.041 130.073 813.634 131.676L814.06 132.58ZM822.165 124.269C823.369 121.719 824.072 118.827 824.282 115.601L823.284 115.535C823.081 118.657 822.403 121.423 821.261 123.841L822.165 124.269ZM824.282 115.6C824.49 112.344 824.594 108.572 824.594 104.286H823.594C823.594 108.557 823.49 112.306 823.284 115.536L824.282 115.6ZM824.594 104.286V2.95999H823.594V104.286H824.594ZM824.094 3.45999H846.036V2.45999H824.094V3.45999ZM845.536 2.95999V104.286H846.536V2.95999H845.536ZM845.536 104.286C845.536 108.7 845.501 112.63 845.432 116.076L846.432 116.095C846.501 112.641 846.536 108.705 846.536 104.286H845.536ZM845.432 116.085C845.432 119.502 845.09 122.708 844.409 125.704L845.385 125.925C846.084 122.849 846.432 119.569 846.432 116.085H845.432ZM844.407 125.714C843.799 128.688 842.579 131.778 840.737 134.984L841.605 135.482C843.489 132.202 844.753 129.013 845.387 125.915L844.407 125.714ZM840.738 134.984C836.849 141.738 831.744 146.667 825.424 149.792L825.868 150.689C832.382 147.466 837.627 142.39 841.604 135.482L840.738 134.984ZM825.424 149.792C819.082 152.93 812.086 154.502 804.429 154.502V155.502C812.227 155.502 819.376 153.899 825.868 150.689L825.424 149.792ZM913.044 151.005L912.936 151.493L912.938 151.494L913.044 151.005ZM890.159 143.045L889.677 142.91L889.569 143.298L889.924 143.486L890.159 143.045ZM895.731 123.145L895.949 122.695L895.411 122.434L895.249 123.01L895.731 123.145ZM910.059 128.916L909.901 129.39L909.908 129.393L909.915 129.395L910.059 128.916ZM926.178 132.697L926.094 133.19L926.096 133.19L926.178 132.697ZM965.58 128.518L965.302 128.102L965.298 128.105L965.58 128.518ZM971.351 103.046L970.931 103.319L970.938 103.328L971.351 103.046ZM963.789 96.28L963.537 96.712L963.544 96.7163L963.789 96.28ZM951.849 91.305L951.691 91.7795L951.703 91.7832L951.849 91.305ZM935.73 86.529L935.595 87.0105L935.601 87.0121L935.73 86.529ZM917.422 80.36L917.221 80.8178L917.227 80.8207L917.234 80.8235L917.422 80.36ZM903.094 71.803L902.774 72.1872L902.78 72.1922L903.094 71.803ZM893.741 60.062L893.286 60.2699L893.29 60.2778L893.294 60.2856L893.741 60.062ZM904.885 14.889L905.174 15.297L905.174 15.297L904.885 14.889ZM971.351 7.32699L971.253 7.81735L971.261 7.81892L971.351 7.32699ZM993.639 13.894L994.12 14.0288L994.236 13.6168L993.846 13.4392L993.639 13.894ZM988.067 33.794L987.855 34.2471L988.389 34.4963L988.548 33.9288L988.067 33.794ZM967.57 27.227L967.459 27.7146L967.468 27.7166L967.57 27.227ZM921.402 29.814L921.667 30.238L921.67 30.2362L921.402 29.814ZM915.83 53.495L916.252 53.228L916.252 53.228L915.83 53.495ZM922.795 60.062L922.535 60.4891L922.542 60.4933L922.549 60.4973L922.795 60.062ZM933.939 64.838L933.781 65.3123L933.781 65.3123L933.939 64.838ZM949.063 69.415L948.928 69.8966L948.929 69.8968L949.063 69.415ZM968.565 75.982L968.754 75.5192L968.754 75.5192L968.565 75.982ZM983.49 84.539L983.176 84.9282L983.182 84.933L983.49 84.539ZM993.241 96.479L992.791 96.6974L992.795 96.7053L992.799 96.7129L993.241 96.479ZM982.097 143.244L982.391 143.648L982.395 143.645L982.097 143.244ZM940.705 153.49C931.454 153.49 922.269 152.499 913.15 150.516L912.938 151.494C922.126 153.491 931.382 154.49 940.705 154.49V153.49ZM913.151 150.517C904.162 148.534 896.579 145.894 890.394 142.604L889.924 143.486C896.209 146.83 903.883 149.496 912.936 151.493L913.151 150.517ZM890.64 143.18L896.212 123.28L895.249 123.01L889.677 142.91L890.64 143.18ZM895.513 123.595C899.912 125.728 904.709 127.66 909.901 129.39L910.217 128.442C905.061 126.723 900.305 124.807 895.949 122.695L895.513 123.595ZM909.915 129.395C915.241 130.993 920.634 132.258 926.094 133.19L926.262 132.204C920.843 131.279 915.49 130.023 910.202 128.437L909.915 129.395ZM926.096 133.19C931.692 134.123 937.026 134.59 942.098 134.59V133.59C937.087 133.59 931.808 133.128 926.26 132.204L926.096 133.19ZM942.098 134.59C952.362 134.59 960.305 132.726 965.862 128.931L965.298 128.105C959.976 131.74 952.264 133.59 942.098 133.59V134.59ZM965.857 128.934C971.573 125.123 974.438 119.658 974.438 112.598H973.438C973.438 119.336 970.73 124.483 965.302 128.102L965.857 128.934ZM974.438 112.598C974.438 108.676 973.558 105.387 971.763 102.764L970.938 103.328C972.593 105.747 973.438 108.825 973.438 112.598H974.438ZM971.77 102.774C969.993 100.04 967.406 97.7328 964.033 95.8437L963.544 96.7163C966.805 98.5419 969.259 100.746 970.932 103.318L971.77 102.774ZM964.041 95.8481C960.814 93.9658 956.796 92.2938 951.995 90.8268L951.703 91.7832C956.454 93.2349 960.396 94.8795 963.537 96.7119L964.041 95.8481ZM952.007 90.8307C947.219 89.2348 941.836 87.6399 935.859 86.0459L935.601 87.0121C941.563 88.6021 946.926 90.1912 951.691 91.7793L952.007 90.8307ZM935.865 86.0475C929.247 84.1945 923.162 82.144 917.609 79.8965L917.234 80.8235C922.826 83.0867 928.946 85.1488 935.595 87.0105L935.865 86.0475ZM917.623 79.9022C912.219 77.5298 907.482 74.6995 903.408 71.4138L902.78 72.1922C906.931 75.5398 911.746 78.4142 917.221 80.8178L917.623 79.9022ZM903.414 71.4189C899.485 68.1451 896.412 64.2857 894.188 59.8384L893.294 60.2856C895.581 64.8597 898.742 68.8275 902.774 72.1871L903.414 71.4189ZM894.195 59.8541C892.108 55.2875 891.057 49.9877 891.057 43.943H890.057C890.057 50.1036 891.128 55.5498 893.286 60.2699L894.195 59.8541ZM891.057 43.943C891.057 31.4872 895.766 21.9611 905.174 15.297L904.596 14.481C894.9 21.3489 890.057 31.1921 890.057 43.943H891.057ZM905.174 15.297C914.609 8.61348 927.958 5.24 945.282 5.24V4.24C927.846 4.24 914.264 7.63252 904.596 14.481L905.174 15.297ZM945.282 5.24C954.005 5.24 962.662 6.09905 971.253 7.81728L971.449 6.8367C962.793 5.10561 954.071 4.24 945.282 4.24V5.24ZM971.261 7.81892C979.989 9.40576 987.376 11.5846 993.431 14.3488L993.846 13.4392C987.696 10.6314 980.225 8.43222 971.44 6.83505L971.261 7.81892ZM993.157 13.7592L987.585 33.6592L988.548 33.9288L994.12 14.0288L993.157 13.7592ZM988.278 33.3409C982.267 30.5357 975.397 28.3358 967.671 26.7374L967.468 27.7166C975.132 29.3022 981.926 31.4803 987.855 34.2471L988.278 33.3409ZM967.681 26.7395C960.084 25.0069 952.551 24.14 945.083 24.14V25.14C952.473 25.14 959.931 25.9978 967.459 27.7145L967.681 26.7395ZM945.083 24.14C934.692 24.14 926.688 25.8695 921.134 29.3917L921.67 30.2362C926.994 26.8598 934.777 25.14 945.083 25.14V24.14ZM921.137 29.39C915.685 32.7976 912.942 37.7335 912.942 44.142H913.942C913.942 38.0798 916.506 33.4637 921.667 30.238L921.137 29.39ZM912.942 44.142C912.942 47.928 913.753 51.1439 915.407 53.762L916.252 53.228C914.722 50.8048 913.942 47.7853 913.942 44.142H912.942ZM915.407 53.762C917.048 56.3596 919.43 58.5995 922.535 60.4891L923.055 59.6349C920.056 57.8098 917.796 55.6718 916.252 53.228L915.407 53.762ZM922.549 60.4973C925.635 62.2418 929.381 63.8458 933.781 65.3123L934.097 64.3637C929.74 62.9115 926.057 61.3315 923.041 59.6267L922.549 60.4973ZM933.781 65.3123C938.168 66.7749 943.218 68.303 948.928 69.8966L949.197 68.9334C943.498 67.343 938.465 65.8198 934.097 64.3637L933.781 65.3123ZM948.929 69.8968C956.077 71.8824 962.559 74.0653 968.375 76.4448L968.754 75.5192C962.896 73.1226 956.376 70.9276 949.197 68.9332L948.929 69.8968ZM968.375 76.4448C974.176 78.8179 979.107 81.6472 983.176 84.9282L983.804 84.1498C979.647 80.7975 974.628 77.9221 968.754 75.5192L968.375 76.4448ZM983.182 84.933C987.37 88.2048 990.57 92.1257 992.791 96.6974L993.691 96.2605C991.4 91.5456 988.1 87.5065 983.798 84.145L983.182 84.933ZM992.799 96.7129C995.14 101.136 996.323 106.491 996.323 112.797H997.323C997.323 106.367 996.117 100.843 993.683 96.2451L992.799 96.7129ZM996.323 112.797C996.323 125.652 991.48 135.647 981.798 142.843L982.395 143.645C992.348 136.248 997.323 125.945 997.323 112.797H996.323ZM981.802 142.84C972.102 149.919 958.423 153.49 940.705 153.49V154.49C958.541 154.49 972.457 150.897 982.391 143.648L981.802 142.84Z" fill="#242A70"/>
</svg>
